<svg xmlns="http://www.w3.org/2000/svg" xmlns:xlink="http://www.w3.org/1999/xlink" version="1.1" x="0px" y="0px" viewBox="0 0 100 125" enable-background="new 0 0 100 100" xml:space="preserve"><g><path d="M15.934,36.963c-1.416-0.033-2.819,0.309-4.068,0.984c-1.516,0.827-2.842,1.976-3.884,3.353   c-1.085,1.437-1.92,3.044-2.475,4.763c-0.639,1.971-0.985,4.021-1.035,6.091c-0.051,2.07,0.2,4.133,0.744,6.131   c0.471,1.738,1.232,3.387,2.248,4.869c0.975,1.43,2.244,2.631,3.725,3.533c1.211,0.742,2.594,1.143,4.014,1.176   s2.822-0.301,4.068-0.98c1.52-0.83,2.846-1.979,3.887-3.354c1.086-1.436,1.921-3.047,2.476-4.758   c0.638-1.971,0.985-4.025,1.036-6.096c0.046-2.072-0.205-4.136-0.75-6.132c-0.47-1.736-1.229-3.381-2.244-4.871   c-0.975-1.428-2.244-2.631-3.723-3.532C18.74,37.405,17.353,36.997,15.934,36.963z"/></g><g><path d="M36.457,40.024c1.297-0.113,2.533-0.615,3.545-1.437c1.382-1.115,2.512-2.519,3.307-4.114   c0.841-1.684,1.422-3.48,1.727-5.338c0.363-2.242,0.45-4.521,0.254-6.785c-0.197-2.258-0.678-4.49-1.428-6.633   c-0.62-1.777-1.505-3.447-2.624-4.957c-1.062-1.436-2.415-2.619-3.972-3.488c-1.139-0.627-2.441-0.906-3.736-0.793   c-1.299,0.113-2.532,0.613-3.545,1.436c-1.385,1.115-2.511,2.518-3.306,4.115c-0.842,1.684-1.423,3.479-1.727,5.336   c-0.368,2.246-0.451,4.522-0.253,6.788c0.196,2.257,0.674,4.488,1.426,6.632c0.617,1.777,1.502,3.447,2.624,4.963   c1.06,1.431,2.412,2.612,3.968,3.48C33.856,39.856,35.158,40.137,36.457,40.024z"/></g><g><path d="M66.48,91.631l-8.24-2.285c-5.537-1.535-11.385-1.535-16.923,0l-8.243,2.285c-3.279,1.123-6.91,0.307-9.392-2.117   c-3.634-3.541-3.707-9.359-0.16-12.992l21.111-22.062c0.071-0.074,0.146-0.154,0.221-0.221c2.842-2.719,7.351-2.627,10.07,0.221   l21.111,22.062c2.619,2.531,3.482,6.371,2.201,9.779C76.463,91.016,71.199,93.406,66.48,91.631z"/></g><g><path d="M83.619,36.963c1.42-0.033,2.822,0.309,4.068,0.984c1.52,0.827,2.846,1.976,3.887,3.353   c1.086,1.437,1.922,3.044,2.477,4.763c0.637,1.971,0.984,4.021,1.035,6.091c0.047,2.07-0.205,4.133-0.746,6.131   c-0.473,1.738-1.232,3.387-2.246,4.869c-0.977,1.43-2.246,2.631-3.725,3.533c-1.213,0.742-2.6,1.143-4.018,1.176   c-1.416,0.033-2.818-0.301-4.064-0.98c-1.52-0.83-2.846-1.979-3.889-3.354c-1.084-1.436-1.92-3.047-2.475-4.758   c-0.639-1.971-0.984-4.025-1.035-6.096c-0.051-2.072,0.201-4.136,0.744-6.132c0.475-1.736,1.232-3.381,2.248-4.871   c0.977-1.428,2.244-2.631,3.725-3.532C80.816,37.405,82.201,36.997,83.619,36.963z"/></g><g><path d="M63.1,40.024c-1.295-0.113-2.531-0.615-3.543-1.437c-1.383-1.115-2.512-2.519-3.307-4.114   c-0.842-1.684-1.424-3.48-1.727-5.338c-0.367-2.242-0.451-4.521-0.254-6.785c0.195-2.258,0.674-4.49,1.426-6.633   c0.617-1.777,1.506-3.447,2.625-4.957c1.059-1.436,2.412-2.619,3.971-3.488c1.135-0.627,2.438-0.906,3.738-0.793   c1.295,0.113,2.531,0.613,3.543,1.436c1.383,1.115,2.512,2.518,3.307,4.115c0.842,1.684,1.422,3.479,1.727,5.336   c0.363,2.246,0.451,4.522,0.254,6.788c-0.197,2.257-0.678,4.488-1.426,6.632c-0.621,1.777-1.508,3.447-2.625,4.963   c-1.059,1.431-2.416,2.612-3.971,3.48C65.697,39.856,64.395,40.137,63.1,40.024z"/></g></svg>