<svg xmlns="http://www.w3.org/2000/svg" xmlns:xlink="http://www.w3.org/1999/xlink" version="1.1" x="0px" y="0px" viewBox="0 0 100 125" enable-background="new 0 0 100 100" xml:space="preserve"><g><path fill="none" d="M43,48.5c0,5.4-4.4,9.8-9.9,9.8H22.2c-5.4,0-8.2-4.8-5.8-10.4c2.2-5,8.1-9.2,13.5-9.2h3.2   C38.5,38.7,43,43.1,43,48.5z"/><rect x="21.1" y="69.8" fill="none" width="25.8" height="3.2"/><path d="M93.5,25c-1.6-0.2-3.7-0.3-4.4,0.3c-1.5,1.1-2.7,8.1-3.6,11.7l-22.7,1.7c-3.4-4.4-8.8-4.9-14.8-4.9h-0.3   c0.1-0.3,0.2-0.5,0.2-0.9c0-1.1-0.9-2-2-2h-1.1v-3.5h29.6c1.5,0,2.7-1.2,2.7-2.7c0-1.5-1.2-2.7-2.7-2.7H44.6c-0.3-0.6-0.9-1-1.5-1   c-0.7,0-1.3,0.4-1.6,1H11.8c-1.5,0-2.7,1.2-2.7,2.7c0,1.5,1.2,2.7,2.7,2.7h29.6V31H40c-1.1,0-2,0.9-2,2c0,0.3,0.1,0.6,0.2,0.9h-4.4   c-10.3,0-19.7,5.9-23,15.7c-3.3,9.6-1.5,18.8,7,20.1c0,0,0,0,0,0v3.4h-0.5c-1.7,0-3.3,0-5,0c-0.7,0-1.9-0.1-2.3-0.6   c-0.3-0.5-0.3-2.5-0.3-3.2c0-3.7-5.5-3.6-5.5,0.1c0,3-0.2,6.3,2.7,8.1c2.4,1.5,5.3,1.4,8,1.4h47.2c3.7,0,3.7-5.8,0-5.8H50.4v-3.3   c0,0,0-0.1,0-0.1c7.1-1.3,10.4-8,15.8-13.2c2.3-2.2,12.8-8,19-9.9c0.2,0.1,0.4,0.2,0.6,0.2h5.6c2.4,0,4.4-2,4.4-4.4V27.5   C95.8,26.2,94.8,25.1,93.5,25z M16.4,47.9c2.2-5,8.1-9.2,13.5-9.2h3.2c5.4,0,9.9,4.4,9.9,9.8c0,5.4-4.4,9.8-9.9,9.8H22.2   C16.8,58.3,13.9,53.5,16.4,47.9z M21.1,73.1v-3.2h25.8v3.2H21.1z"/></g></svg>